<?xml version="1.0" standalone="no"?>
<!DOCTYPE svg PUBLIC "-//W3C//DTD SVG 20010904//EN"
 "http://www.w3.org/TR/2001/REC-SVG-20010904/DTD/svg10.dtd">
<svg version="1.0" xmlns="http://www.w3.org/2000/svg"
 width="512.000000pt" height="512.000000pt" viewBox="0 0 512.000000 512.000000"
 preserveAspectRatio="xMidYMid meet">
<metadata>
Created by potrace 1.14, written by Peter Selinger 2001-2017
</metadata>
<g transform="translate(0.000000,512.000000) scale(0.100000,-0.100000)"
fill="#000000" stroke="none">
<path d="M716 4850 c-189 -51 -343 -185 -414 -360 -49 -121 -48 -81 -47 -1940
1 -960 5 -1761 9 -1780 54 -248 222 -428 458 -490 70 -18 135 -19 1833 -19
1466 1 1771 3 1825 15 102 21 217 83 291 157 78 77 80 80 123 159 75 138 69
-2 71 1963 1 1968 6 1829 -71 1983 -51 104 -160 213 -264 265 -144 71 -22 67
-1980 66 -1686 0 -1768 -1 -1834 -19z m3380 -2283 l1 -1537 -1537 0 -1537 0 0
1533 c-1 842 3 1534 7 1537 5 3 696 5 1537 4 l1528 0 1 -1537z"/>
<path d="M1765 3761 c-52 -25 -389 -363 -409 -411 -17 -43 -14 -115 6 -155 9
-16 152 -166 318 -333 l303 -303 -303 -302 c-198 -198 -309 -316 -321 -341
-21 -47 -19 -118 4 -161 25 -47 367 -382 407 -399 43 -17 115 -14 154 6 16 8
166 152 333 318 l303 303 302 -302 c166 -167 315 -309 331 -317 40 -21 93 -26
141 -13 34 9 73 42 225 192 113 112 190 197 201 221 21 46 20 117 -3 161 -8
17 -151 167 -318 333 l-302 302 303 303 c328 327 347 352 336 434 -3 24 -12
56 -20 71 -8 15 -97 109 -198 209 -156 154 -190 183 -227 193 -47 12 -101 7
-140 -14 -14 -8 -161 -150 -328 -316 l-303 -303 -302 303 c-167 166 -316 309
-331 317 -46 23 -116 25 -162 4z"/>
</g>
</svg>
